<svg width="24" height="24" viewBox="0 0 24 24" fill="none" xmlns="http://www.w3.org/2000/svg">
<path d="M5.607 16.897L6.947 16.517C8.156 16.174 9 14.983 9 13.618C9 13.618 9 11.964 12 11.964C15 11.964 15 13.618 15 13.618C15 14.983 15.844 16.174 17.053 16.518L18.393 16.898C20.218 17.414 22 15.91 22 13.85C22 12.613 21.723 11.373 20.917 10.503C19.56 9.04 16.807 7 12 7C7.193 7 4.44 9.039 3.083 10.503C2.277 11.373 2 12.613 2 13.85C2 15.91 3.782 17.415 5.607 16.897Z" stroke="#DF333E" stroke-width="1.5" stroke-linecap="round"/>
</svg>
