<svg width="24" height="24" viewBox="0 0 24 24" fill="none" xmlns="http://www.w3.org/2000/svg">
<path d="M10.038 5.31598L10.687 6.47898C11.272 7.52898 11.037 8.90498 10.115 9.82798C10.115 9.82798 8.995 10.947 11.025 12.976C13.052 15.003 14.172 13.886 14.172 13.886C15.095 12.963 16.472 12.728 17.521 13.313L18.684 13.963C20.269 14.847 20.456 17.069 19.063 18.463C18.226 19.299 17.2 19.951 16.067 19.993C14.159 20.066 10.918 19.583 7.667 16.333C4.417 13.082 3.934 9.84098 4.007 7.93298C4.05 6.79998 4.701 5.77398 5.537 4.93698C6.931 3.54398 9.153 3.73098 10.037 5.31698L10.038 5.31598Z" stroke="#1FAB4D" stroke-width="1.5" stroke-linecap="round"/>
</svg>
