<svg width="24" height="24" viewBox="0 0 24 24" fill="none" xmlns="http://www.w3.org/2000/svg">
<path d="M17 8C17 6.67392 16.4732 5.40215 15.5355 4.46447C14.5979 3.52678 13.3261 3 12 3C10.6739 3 9.40215 3.52678 8.46447 4.46447C7.52678 5.40215 7 6.67392 7 8V11C7 12.3261 7.52678 13.5979 8.46447 14.5355C9.40215 15.4732 10.6739 16 12 16C13.3261 16 14.5979 15.4732 15.5355 14.5355C16.4732 13.5979 17 12.3261 17 11M17 8V11M17 8H13.5M17 11H13.5M20 10V11C20 13.1217 19.1571 15.1566 17.6569 16.6569C16.1566 18.1571 14.1217 19 12 19M12 19C9.87827 19 7.84344 18.1571 6.34315 16.6569C4.84285 15.1566 4 13.1217 4 11V10M12 19V22" stroke="#F4F4F4" stroke-width="1.5" stroke-linecap="round"/>
</svg>
