<svg width="24" height="24" viewBox="0 0 24 24" fill="none" xmlns="http://www.w3.org/2000/svg">
<path d="M22 17V12.125C22 7.63756 19.5 3 12 3C4.5 3 2 7.63756 2 12.125V17M8 14.187C8 13.609 8 13.32 7.931 13.09C7.85688 12.8332 7.71678 12.6003 7.52466 12.4145C7.33255 12.2287 7.09511 12.0965 6.836 12.031C6.611 11.977 6.336 12.001 5.784 12.046C4.828 12.125 4.349 12.164 3.959 12.316C3.06 12.663 2.374 13.439 2.113 14.404C2 14.823 2 15.324 2 16.328V16.514C2 17.544 2 18.058 2.123 18.493C2.23752 18.9098 2.43796 19.2981 2.71144 19.6329C2.98492 19.9677 3.32539 20.2416 3.711 20.437C4.103 20.632 4.589 20.712 5.561 20.873C6.206 20.979 6.529 21.033 6.79 20.979C7.0471 20.9234 7.28538 20.802 7.48152 20.6267C7.67766 20.4514 7.82495 20.2283 7.909 19.979C8 19.718 8 19.376 8 18.693V14.187ZM16 14.187C16 13.609 16 13.32 16.069 13.09C16.1431 12.8332 16.2832 12.6003 16.4753 12.4145C16.6675 12.2287 16.9049 12.0965 17.164 12.031C17.389 11.977 17.664 12.001 18.215 12.046C19.172 12.125 19.651 12.164 20.041 12.316C20.94 12.663 21.626 13.439 21.887 14.404C22 14.823 22 15.324 22 16.328V16.514C22 17.544 22 18.058 21.877 18.493C21.7625 18.9098 21.562 19.2981 21.2886 19.6329C21.0151 19.9677 20.6746 20.2416 20.289 20.437C19.897 20.632 19.411 20.712 18.439 20.873C17.794 20.979 17.471 21.033 17.21 20.979C16.9529 20.9234 16.7146 20.802 16.5185 20.6267C16.3223 20.4514 16.175 20.2283 16.091 19.979C16 19.718 16 19.376 16 18.693V14.187Z" stroke="#F4F4F4" stroke-width="1.5"/>
</svg>
